<?xml version="1.0" encoding="UTF-8"?>
<!DOCTYPE svg PUBLIC "-//W3C//DTD SVG 1.1//EN" "http://www.w3.org/Graphics/SVG/1.1/DTD/svg11.dtd">
<!-- Creator: CorelDRAW 2021 (64-Bit) -->
<svg xmlns="http://www.w3.org/2000/svg" xml:space="preserve" width="8.5in" height="11in" version="1.1" style="shape-rendering:geometricPrecision; text-rendering:geometricPrecision; image-rendering:optimizeQuality; fill-rule:evenodd; clip-rule:evenodd"
viewBox="0 0 8500 11000"
 xmlns:xlink="http://www.w3.org/1999/xlink"
 xmlns:xodm="http://www.corel.com/coreldraw/odm/2003">
 <defs>
  <style type="text/css">
   <![CDATA[
    .fil0 {fill:#5691D6}
    .fil1 {fill:#E82F37}
   ]]>
  </style>
 </defs>
 <g id="Layer_x0020_1">
  <metadata id="CorelCorpID_0Corel-Layer"/>
  <g id="_2122680437328">
   <path class="fil0" d="M781.75 4223.56l3741.61 0 0 1329.2 -2612.65 0c5.7,-15.99 11.33,-31.82 17.15,-46.42 10.04,-25.16 66.61,-26.03 101.05,-49.55l-20 -44.25c-16.51,3.99 -38.19,21.23 -53.34,28.26 1.7,-15.17 41.28,-96.56 50.38,-118.61 5.9,-14.28 3.48,-18.41 18.57,-24.64 9.51,-3.93 22.26,-10.12 31.07,-13.07 16.91,-5.69 9.06,3.49 30.79,-7.51 9.7,-4.9 19.49,-10.31 29.02,-13.98l-18.91 -41.59c-11.84,3.3 -21.28,8.49 -31.9,13.15 -12.27,5.36 -20.8,11.86 -31.02,16.26 5.96,-23.94 41.6,-94.55 40.19,-104.11 -1.13,-7.59 -5.77,-5.33 -1.87,-17.05 5.03,-15.04 15.75,-40.29 27.38,-48.89 11.86,-8.78 17.3,-13.85 27.8,-23.89 33.44,-31.96 15.8,-17.69 61,-39.97 46.91,-23.13 91.46,-43.59 130.63,-71.52 22.85,-16.3 98,-74.27 91.07,-109.06 -20.92,-14.22 -121.87,-13.54 -152.65,-9.55 -51.52,6.68 -179.82,83.59 -225.8,113.36 -29.91,19.33 -20.69,14.34 -57.41,1.31 -18.06,-6.42 -47.16,-15.26 -62.58,-23.87 0.42,-0.51 1.14,-1.88 1.38,-1.41 0.23,0.46 1.09,-1.11 1.41,-1.37l15.93 -8.58c8.8,-4.17 13.83,-7.42 22.16,-10.02l-17.33 -39.88c-31.54,6.47 -49.48,26.61 -53.68,29.42 -25.97,17.39 -36.32,10.12 -62.67,0.64 -21.71,-7.81 -108.81,-37.12 -120.86,-47.14l35.72 -16.67 -17.27 -41.24 -46.42 19.07c0.24,10.07 -4.13,16 -25.48,21.65 -12.19,3.22 -95,-36.44 -110.02,-42.76 -16.51,-6.96 -56.95,-26.54 -72.65,-29.93 -17.81,-3.82 -64.51,18.94 -74.15,29.8 10.61,6.38 152.05,91.03 156.91,97.49 6.26,8.36 -3.88,2 8.94,12.79 11.66,9.84 20.62,6.86 12.01,22.88 42.46,-4.97 29.64,6.41 76.95,31.39l-6.1 13.17c32.69,-4.66 17.14,-1.24 39.75,7.52 13.98,5.41 7.75,-2.55 19.21,8 4.9,4.51 7.78,9.01 13.25,13.65 -4.51,9.71 -1.97,0.46 -5.96,11.8 7.03,4.41 10.02,8.17 16.33,13.83 11.48,10.25 13.13,7.2 5.43,21.72 20.59,-2.33 17.86,0.88 29.23,11.52 12.07,11.28 15.44,8.9 12.05,26.46 15.95,-0.72 17.29,-2.09 39.17,25.07 17.11,-3.58 61.62,-28.24 79.57,-36.62 20.82,-9.72 58.61,-31.26 77.36,-36.39l-155.5 79.62 -22.03 -19.53c-61.7,27.38 -230.95,117.85 -299.44,153.99 -82.46,43.5 -58.7,46.8 -162.71,10.03 -11.52,-4.08 -116.19,-42.94 -122.89,-42.16 -7.5,0.87 -31.92,12.96 -38.1,17.96 4.27,7.79 6.72,9.85 13.46,16.11l76.66 83.9c11.06,13.87 20.86,19.62 30.1,35.04 14.55,-2.29 34.93,-16.85 48.15,-22.14 -9.61,2.84 -26.09,21.47 -37.42,25.18 -15.14,4.96 -10.53,-3.66 -23.3,9.36 -5.53,5.64 -12.34,10.77 -11.54,20.88 32.02,5.99 121.4,-31.14 158.62,-31.05l-115.43 32.52 22.36 155.22c9.02,0.43 16.76,-5.19 25.95,-9.35 12.9,-5.83 13.52,-5.08 19.36,-18.49 8.53,-19.57 15.31,-35.85 23.43,-54.86 14.65,-34.26 34.32,-73.68 46.11,-108.43l-21.79 3.38 3.59 -1.73c0.42,-0.16 1.36,-0.59 1.9,-0.78l67.19 -18.25c25.89,-7.41 47.68,-14.7 72.7,-23.23 75.19,-25.6 125.88,-55.45 193.98,-87.69 22.21,-10.52 51.69,-13.02 75.86,-19.98 25.76,-7.42 46.95,-17.74 68.87,-26.89 18.28,-7.62 49.48,-23.87 66.61,-28.13l-121.44 54.82c0.3,27.62 8.96,35.36 -2.39,55.28 14.84,3.71 9.52,32.06 1.78,40.17 7.81,14.79 6.5,-0.81 7.67,24.93 24.03,14.06 7.85,31.29 6.32,34.51 -8.24,17.28 1.79,23.24 -16.86,39.74 10.2,5.94 9.06,-4.23 2.37,34.36 -3.5,20.2 -3.33,25.63 -14.79,36.76 6.99,12.13 7.55,27.65 4.46,41.72l-7.35 36.56 -1044.24 0 0 -1329.2zm402.42 1093.31c15.41,8.1 67.89,29.58 83.65,32.71 -6.51,-9.24 -38.91,-46.47 -49.12,-51.05l-34.54 18.33z"/>
   <g>
    <path class="fil1" d="M3434.42 5547.71l3741.61 0 0 1329.2 -3741.61 0 0 -1329.2zm2698.85 943.51l69.88 0 0 73.02 -69.88 0 0 -73.02zm-186.33 -1.56l69.88 0 0 73.02 -69.88 0 0 -73.02zm-79.34 77.74l69.88 0 0 73.02 -69.88 0 0 -73.02zm186.36 0.95l69.88 0 0 73.02 -69.88 0 0 -73.02zm79.36 0.15l69.88 0 0 73.02 -69.88 0 0 -73.02zm335.36 -83.13l69.88 0 0 73.02 -69.88 0 0 -73.02zm79.31 -0.12l69.88 0 0 73.02 -69.88 0 0 -73.02zm-978.78 308.01l28.63 0.3 1217.03 0.1 11.18 -0.59 0.56 -423.69 -1257.38 0.05 0 415.28 -0.02 8.55zm407.72 -569.24l459.69 -0.06 -0.04 129.06 460.83 0.05 -28.28 -28.19c-10.42,-10.1 -16.23,-12.59 -27.75,-24.82l-56.17 -48.52c-1.5,-31.6 3.18,-265.56 -2.86,-272.5 -7.73,-8.89 -17.87,-4.51 -19.24,8.94l-0.08 239.33c-9.35,-4.21 -42.59,-37.27 -52.94,-46.91 -40.7,-37.87 -31.87,-32.64 -64.46,-32.4l-869.74 0.02c-73.63,0 -46,-4.19 -76.26,20.37l-151.3 137.69c-8.94,8.82 -43.96,36.04 -50.5,46.98l478.81 -0.79 0.31 -128.27zm-459.31 638.13l1360.66 0 0.68 -48.67 -1362.28 0.53 0.94 48.13zm210.28 -119.04l-71.96 0 0 -304.63 0 -2.51 148.02 0 0 307.14 -76.06 0 -0.01 0zm610.61 8.57l-72.04 0 0 -304.23 0 -6.5 148.03 0 0 310.74 -75.98 0zm-350.97 -406.48l437.8 -0.01 0.2 -110.32 -437.89 -0.02 -0.12 110.35zm806.53 -342.66l-0.72 67.37c23.93,-7.76 52.82,-14.69 79.2,-2.46 23.96,11.11 48.29,17.55 74.89,3.47 5.73,-17.27 1.76,-47.83 1.92,-68.93 -33.84,9.61 -43.91,9.61 -75.32,-3.22 -21.23,-8.67 -59.5,-10.17 -79.97,3.77zm-515.22 272.32c0.72,3.73 1.09,7.72 1.09,11.91 0,6.14 -0.81,11.87 -2.35,17 -4.53,15.19 -15.27,25.14 -29.31,25.14 -3.8,0 -7.35,-0.73 -10.59,-2.09 -12.85,-5.37 -20.98,-20.63 -20.98,-40.05 0,-14.16 4.28,-26.04 11.53,-33.54 5.28,-5.46 12.12,-8.59 20.04,-8.59 15.57,0 27.08,12.14 30.57,30.22zm18.34 47.59c-8.66,-7.28 -13.87,-20.15 -13.87,-35.69 0,-11.03 2.59,-20.68 7.17,-27.95 5.57,-8.85 14.07,-14.18 24.39,-14.18 11.22,0 20.33,6.3 25.85,16.58 3.72,6.94 5.82,15.7 5.82,25.54 0,12.93 -3.64,24.03 -9.88,31.58 -5.49,6.65 -12.98,10.56 -21.78,10.56 -6.79,0 -12.8,-2.33 -17.69,-6.44zm-85.28 -47.62l0 20.27 0 32.46 -19.81 0 0 -2.22 0 -28.08 -1.38 0 -18.54 0 0 30.3 -19.81 0 0 -2.04 0 -75.29 0 -4.27 19.81 0 0 29.37 18.5 0 1.42 0 0 -25.06 0 -4.31 19.81 0 0 28.87zm139.44 15.61l0 -6.85 0 -37.62 19.81 0 0 59.54 26.97 0 0 22.06 -46.78 0 0 -37.13zm123.25 342.36l0 -67.01 0 -2.8 69.88 0 0 73.02 -69.88 0 0 -3.2zm238.13 1.74l0 -68.16 0 -3.11 69.88 0 0 73.02 -69.88 0 0 -1.75zm63.78 -82.74l0 4.45 0 1.77 -69.88 0 0 -73.02 69.88 0 0 66.8zm-762.1 85.58l-64.53 0 -2.89 0 0 -73.02 69.88 0 0 73.02 -2.47 0zm681.82 -70.94l0 67.67 0 2.08 -69.89 0 0 -73.02 69.89 0 0 3.27zm-145.75 34.37l0 -34.35 0 -3.38 69.88 0 0 73.02 -69.88 0 0 -35.28zm146.72 -51.42l0 6.44 0 2.3 -69.89 0 0 -73.02 69.89 0 0 64.27zm-762.15 -21.46l0 30.87 0 3.43 -69.88 0 0 -73.02 69.88 0 0 38.72zm183.54 -34.06l0 65.19 -61.24 0 -8.65 0 0 -73.02 69.88 0 0 7.83zm25.77 -182.43c-3.28,7.81 -8.77,13.75 -16.47,16.2 -2.53,0.81 -5.3,1.24 -8.31,1.24 -13.06,0 -23.3,-9.01 -28.09,-23.05 -1.93,-5.64 -2.97,-12.08 -2.97,-19.08 0,-6.87 1,-13.2 2.86,-18.76 4.75,-14.23 15.05,-23.37 28.2,-23.37 6.15,0 11.3,1.8 15.46,4.92 4.16,3.13 7.32,7.57 9.48,12.85 1.47,3.61 2.5,7.62 3.04,11.86l-19.81 0c-1.01,-3.96 -3.44,-6.61 -6.98,-7.09 -0.38,-0.05 -0.78,-0.08 -1.19,-0.08 -2.37,0 -4.39,0.92 -6.04,2.56 -3.32,3.31 -5.1,9.56 -5.1,17.11 0,11.17 3.98,19.67 11.14,19.67 4.18,0 7.04,-2.79 8.17,-7.31l19.81 0c-0.56,4.42 -1.63,8.59 -3.2,12.33zm-103.61 10.98c-0.85,-0.72 -1.65,-1.52 -2.41,-2.36 -3.93,-4.41 -6.5,-10.37 -7.43,-17.61l20.63 0c0.92,3.99 3.68,6.11 7.76,6.11 3.57,0 6.34,-1.73 6.34,-5.31 0,-2.79 -1.64,-3.59 -4.09,-4.25l-12.87 -3.45c-9.61,-2.53 -16.56,-8.91 -16.56,-23.13 0,-17.28 11.24,-27.78 25.74,-27.78 7.12,0 12.84,2.24 17.17,5.96 3.37,2.91 5.9,6.7 7.58,11.04 1.13,2.94 1.88,6.13 2.23,9.45l-19.31 0c-0.78,-2.84 -2.33,-4.98 -4.89,-5.85 -0.79,-0.26 -1.68,-0.41 -2.67,-0.41 -3.47,0 -5.82,1.6 -5.82,4.65 0,2.52 1.54,3.59 3.47,4.12l2.03 0.62 11.05 3.37c7.52,2.31 12.52,6.59 15.02,13 1.22,3.17 1.84,6.84 1.84,11.06 0,8.95 -3.04,15.87 -7.88,20.49 -4.65,4.43 -10.96,6.76 -17.86,6.76 -7.7,0 -14.18,-2.27 -19.07,-6.47zm285.88 -35.66c0,12.23 -4.8,19.67 -11.74,19.67 -6.94,0 -11.65,-7.44 -11.65,-19.67 0,-12.23 4.7,-19.67 11.65,-19.67 6.95,0 11.74,7.44 11.74,19.67zm-66.6 0c0,12.23 -4.8,19.67 -11.74,19.67 -6.95,0 -11.65,-7.44 -11.65,-19.67 0,-12.23 4.7,-19.67 11.65,-19.67 6.95,0 11.74,7.44 11.74,19.67z"/>
   </g>
   <path class="fil0" d="M1892.54 6864.61l3741.61 0 0 1329.2 -2911.9 0c-1.7,-7.73 -4.93,-14.26 -8.52,-21.4 -6.76,-13.4 -14.57,-11.85 -32.1,-11.85 -16.67,0 -74.75,-3.37 -85.39,2.8 6.22,4.19 9.78,5.24 15.6,9.72 8.71,6.7 13.54,13.73 16.94,20.74l-736.23 0 0 -1329.2zm874.88 893.35c-15.63,3.77 -21.21,18.33 -28.39,32.22 -6.91,13.37 -13.9,27.01 -20.89,40.3 -13.88,26.33 -27.9,53.95 -41.57,79.7 -3.92,7.38 -17.41,36.54 -21.54,38.59 -12.58,6.28 -24.85,-21.15 -29.27,-30l-61.81 -119.55c-5.61,-10.77 -14,-31.98 -23.87,-37.24 -28.54,-15.21 -70.68,15.45 -86.6,27.48 -44.57,33.64 -83.74,97.06 -86.39,156.94 -0.85,19.11 12.66,15 42.54,17.67 18.44,1.65 37.98,2.85 57.14,4.02 38.06,2.31 77.38,3.96 115.83,4.69 108.35,2.06 189.3,-0.73 294.91,-7.81 11.5,-0.77 47.83,-0.7 52.45,-8.41 4.92,-8.2 -3.85,-42.34 -6.52,-51.61 -8.65,-30.09 -23.46,-56.15 -41.84,-79.54 -9.7,-12.34 -18.56,-20.33 -30.37,-30.8 -12.59,-11.17 -57.06,-43.11 -83.8,-36.65zm-175.24 364.46c-10.95,-1.78 -215.69,20.21 -249.94,21.84 -61.48,2.91 -73.45,-69.36 -54.56,-111.09 31.78,-70.21 98.58,-9.63 70.23,36.8 -9.13,14.96 -37.88,21.57 -41.95,-27.34l-11.61 -2.15c-3.47,27.16 -13.85,55.04 5.19,75.52 17.09,18.41 48.88,11.11 76.16,8.74 16.53,-1.44 201.43,-17.71 208.54,-20.97 21.4,-9.81 1.06,-98.07 -11.45,-109.72 -6.67,-6.2 -68.12,-8 -82.46,-9.04 -31.22,-2.26 -150.84,-12 -172.53,-11.36 -61.69,1.81 -72.24,63.78 -68.26,113.67 2.3,28.78 11.72,51.16 27.5,64.51 19.46,16.48 44.1,17.43 74.06,14.39 27.81,-2.81 55,-6.73 83.53,-8.74 29.36,-2.07 59.3,-2.61 89.01,-2.37 14.98,0.11 28.2,1.62 41.11,-4.04 10.2,-4.46 19.18,-13.8 17.44,-28.65zm-248.76 -764.65c3.72,8.11 23.07,10.68 34.22,13.46l113.97 29.63c25.53,6.27 50,12.92 75.97,19.78 87.13,23.04 72.83,23.28 159.15,0.93 24.78,-6.41 51.27,-12.81 76.77,-19.82 14.08,-3.87 145.65,-36.84 152.64,-39.76 -5.68,-7.43 -23.33,-8.61 -34.36,-10.6 -49.36,-8.91 -240.2,-48.77 -269.04,-50.32 -21.85,-1.19 -57.49,7.91 -79.04,12.3 -24.7,5.03 -226.24,42.38 -230.28,44.41zm381.5 632.25c0.19,3.05 8.35,32.26 10.35,49.77 7.54,65.81 -10.52,66.82 17.34,69.46l242.66 23.37c24.01,2.37 32.58,6.72 38.06,-17.07 7.49,-32.52 6.84,-75.51 -5.86,-104.43 -17.46,-39.78 -43.43,-38.78 -80,-36.18 -37.21,2.64 -74.7,5.35 -111.83,7.6 -37.14,2.27 -73.61,5.95 -110.72,7.48zm-222.78 -474.37c-8.46,13.95 -5.68,60.85 -1.22,78.42 6.2,24.48 16.61,42.8 28.95,59 92.87,121.86 308.78,39.05 265.14,-139.62 -3.44,0.88 -19.74,13.38 -29.39,18.44 -11.13,5.85 -20.58,10.41 -32.87,14.97 -69.08,25.65 -152.21,17.5 -213.63,-23.23 -5.27,-3.49 -9.24,-8.55 -16.99,-7.97zm305.32 -102.35c-12.33,1.76 -27.7,6.06 -39.94,9.17l-78.87 21.35c-12.94,3.72 -26.88,9.69 -41.55,8.53 -23.52,-1.85 -56,-13.94 -79.17,-19.91 -13.22,-3.41 -25.78,-7.29 -39.13,-10.86 -10.35,-2.77 -30.06,-9.69 -39.56,-10.53 1.26,19.59 3.13,48.39 6.38,67.02 3.88,22.21 17.7,31.39 34.1,40.48 71.43,39.56 164.54,42.48 235.99,1.2 15.67,-9.06 32.06,-18 36.85,-36.61 3.61,-14.06 4.77,-53.63 4.89,-69.85zm-210.46 576.5c4.3,12.43 8.61,22.04 11.94,35.79 8.04,33.15 7.55,72.76 -3.08,105.38 -1.95,5.98 -5.01,12.54 -6.09,18.28 33.48,-0.42 71.54,1.96 104.19,0.08 9.94,-0.58 10.58,-5.94 12.91,-14.07 1.91,-6.64 3.85,-13.37 5.24,-20.3 6.04,-29.93 5.65,-64.35 -1.79,-93.78 -3.25,-12.83 -5.15,-30.5 -19.72,-31.64l-103.61 0.27zm47.91 -59.37c11.53,1.41 14.99,-12.21 18.97,-20.7 4.34,-9.27 8.95,-18.3 13.29,-27.91 22.54,-49.87 -9.28,-50.9 -14.46,-92.37 -3.72,-29.8 5,-23.77 12.42,-28.72 7.49,-4.99 13.09,-18.07 5.34,-29.06 -7.31,-10.36 -15.53,-9.28 -31.12,-9.64 -15.34,-0.37 -22.91,-0.98 -31.09,8.53 -8.2,9.54 -4.63,22.07 3.22,28.94 8.96,7.84 18.46,4.1 15.21,25.22 -1.64,10.65 -5.87,22.68 -10.06,30.94 -19.9,39.3 -21.04,33.88 4.69,87.51 3.5,7.29 9.22,21.09 13.59,27.24zm370.26 222.92c-4.86,-6.47 -25.47,-5.89 -35.21,-6.81 -64.17,-6.14 -124.45,-12.38 -189.11,-17.41 -20.01,-1.55 -62.33,-11.31 -65.35,11.18 -1.91,14.2 15.22,13.83 27.33,13.9 39.17,0.2 79.93,1.53 118.85,4.89 24.61,2.13 50.47,5.81 74.78,7.16 14.45,0.8 60.56,1.09 68.71,-12.91zm-136.39 -748.83l0.19 41.17c0,12.66 2.56,29.32 -3.02,39.69 -11.69,21.73 -4.44,11.39 -2.59,32.59 1.7,19.5 -15.87,63.23 -11.62,72.27 1.61,2.5 0.24,2.3 4.8,3.13l42.19 -0.44c-2.09,-21.3 -21.29,-61.8 -13.36,-80.38 11.66,-27.34 -1.43,-14.54 -5,-35.17 -1.23,-7.1 0.34,-51.59 -0.31,-69.89 -0.12,-3.6 -0.35,-7.18 -0.49,-10.78l-0.77 -7.78c-0.7,-2.1 -0.43,-1.47 -1.31,-2.66 -7.18,2.69 -8.69,9.63 -8.69,18.25zm-182.57 789.3l-40.11 0c3.83,-7.65 8.2,-15.82 18.55,-11.24 3.93,1.73 12.56,6.44 21.56,11.24z"/>
   <path class="fil1" d="M3434.03 2909.01l2623.94 0 0 1308.51 -576.92 0c-0.52,-4.04 -1.37,-7.72 -2.66,-10.8 -6.61,-15.78 -26.2,-10.59 -43.85,-6.49l1.27 17.28 -252.01 0c-0.53,-3.87 -1.4,-7.45 -2.69,-10.5 -6.66,-15.72 -25.46,-10.74 -43.93,-7.62l1.2 18.12 -1704.34 0 0 -1308.51zm1806.67 676.76l145.17 0 0 63.81 -145.17 0 0 -63.81zm134.05 -579.39l-133.96 0c-32.36,30.87 -31.04,18.8 -30.6,78.37l0.17 325.11c-9.11,8 1.57,0.85 -11.3,6.39 -5.1,2.2 -7.21,1.55 -14.72,4.81l-1.83 757.24 252.44 0.83 0.02 -758.07c-32.87,-13.59 -18.86,9.79 -27.7,-16.81l0.14 -319.54c0.32,-48.87 0.61,-55.46 -32.67,-78.33zm-237.5 1171.04l-0.37 -757.45c-39.43,-4.22 -72.36,14.86 -88.58,34.6 -19.15,23.3 -26.29,55.62 -26.31,95.14l0 493.56c-0.16,78.1 33.57,141.49 115.25,134.15zm343.77 0.22c78.65,5.85 114.73,-52.11 114.97,-128.72l-0.06 -493.52c0.04,-41.91 -3.55,-70.16 -23.95,-97.52 -15.96,-21.4 -48.87,-42.65 -91.06,-37.85l0.1 757.63zm-235.42 -784.94l0 -324.93 0 -27.59 129.37 0 0 374.41 -6.01 0 -121.8 0 -1.57 0 0 -21.89z"/>
   <polygon class="fil0" points="1245.5,3801.73 1901.96,3801.73 1901.96,4244.61 1245.5,4244.61 "/>
   <polygon class="fil0" points="2332.05,6446.74 2988.51,6446.74 2988.51,6889.63 2332.05,6889.63 "/>
   <polygon class="fil1" points="6073.05,5115.59 6729.51,5115.59 6729.51,5558.48 6073.05,5558.48 "/>
   <polygon class="fil1" points="4983.09,5125.87 5639.55,5125.87 5639.55,5568.76 4983.09,5568.76 "/>
   <polygon class="fil0" points="2298.51,3789.73 2954.97,3789.73 2954.97,4232.62 2298.51,4232.62 "/>
   <polygon class="fil1" points="3862.11,2483.03 4518.57,2483.03 4518.57,2925.92 3862.11,2925.92 "/>
   <polygon class="fil1" points="4958.26,2486.17 5614.72,2486.17 5614.72,2929.06 4958.26,2929.06 "/>
  </g>
 </g>
</svg>
